<?xml version="1.0" standalone="no"?>
<!DOCTYPE svg PUBLIC "-//W3C//DTD SVG 1.1//EN" "http://www.w3.org/Graphics/SVG/1.1/DTD/svg11.dtd" >
<svg xmlns="http://www.w3.org/2000/svg">
<metadata></metadata>
<defs>
<font id="NillandRegular" horiz-adv-x="1130" >
<font-face units-per-em="2048" ascent="1638" descent="-410" />
<missing-glyph horiz-adv-x="512" />
<glyph horiz-adv-x="0" />
<glyph horiz-adv-x="2048" />
<glyph horiz-adv-x="681" d="M45 1370q41 -115 121 -176q82 -66 175 -66t176 64.5t120 177.5h-86q-65 -145 -209 -145q-138 0 -211 145h-86z" />
<glyph horiz-adv-x="681" d="M276 1188h132v131h-132v-131z" />
<glyph horiz-adv-x="681" d="M154 1252q0 -77 53 -132t132 -55t134 55t55 133t-55 133.5t-133 55.5t-133 -56q-53 -57 -53 -134zM215 1254q0 52 37 89q33 37 87 37t91 -37t37 -90t-37 -90t-90 -37t-90 37q-35 39 -35 91z" />
<glyph unicode="&#xa;" horiz-adv-x="681" d="M256 1098h78l241 317h-114zM489 1098h78l244 317h-117z" />
<glyph horiz-adv-x="681" d="M164 -164q0 -90 65 -141t144.5 -51t144.5 37v86q-47 -16 -65 -21q-28 -6 -70.5 -6t-81.5 28t-39 78t18 80q26 46 58 74h-84q-33 -27 -61.5 -71t-28.5 -93z" />
<glyph horiz-adv-x="681" d="M39 1405l242 -297h118l244 297h-72l-231 -213l-229 213h-72z" />
<glyph unicode="&#xd;" horiz-adv-x="512" d="M51 0h443v92h-166v877h-277v-92h170v-785h-170v-92z" />
<glyph horiz-adv-x="704" d="M-172 0h72l981 1391h-72z" />
<glyph horiz-adv-x="1110" d="M47 0h404v92h-142v785h522v-785h-151v-92h403v92h-145v877h-629v194q0 158 131 158q104 0 133 -117l95 15q-12 76 -72 135q-55 59 -157.5 59t-170.5 -74q-66 -76 -65 -196v-174h-150v-92h150v-785h-156v-92zM809 1330q0 -34 24.5 -58.5t57.5 -24.5t57.5 24.5t24.5 58.5 t-24.5 58.5t-57.5 24.5t-57.5 -24.5t-24.5 -58.5z" />
<glyph horiz-adv-x="1110" d="M47 0h404v92h-142v785h158v92h-158v194q0 158 131 158q100 0 133 -117l95 15q-8 45 -29 79h190v-1206h-149v-92h403v92h-147v1299h-389q-41 23 -103 22q-109 0 -176 -74q-66 -76 -65 -196v-174h-156v-92h156v-785h-156v-92z" />
<glyph horiz-adv-x="1044" d="M0 457l221 180v-545h-188v-92h987v553h-111v-461h-573v639l280 230v90l-280 -230v477h186v93h-487v-93h186v-571l-221 -180v-90z" />
<glyph horiz-adv-x="491" d="M-31 436l224 182v-526h-175v-92h455v92h-174v613l225 184v80l-225 -185v607h-283v-93h177v-600l-224 -182v-80z" />
<glyph d="M55 0h1012v358h-94v-266h-780l854 1208v91h-947v-93h807l-852 -1206v-92zM264 1821l242 -297h119l243 297h-71l-232 -213l-229 213h-72z" />
<glyph horiz-adv-x="980" d="M92 0h799v354h-86v-262h-596l684 787v90h-752v-92h633l-682 -785v-92zM188 1405l242 -297h119l244 297h-72l-232 -213l-229 213h-72z" />
<glyph unicode=" "  horiz-adv-x="512" />
<glyph unicode="&#x09;" horiz-adv-x="512" />
<glyph unicode="&#xa0;" horiz-adv-x="512" />
<glyph unicode="!" horiz-adv-x="512" d="M199 0h114v111h-114v-111zM203 954l24 -585h58l24 579v443h-106v-437z" />
<glyph unicode="&#x22;" horiz-adv-x="575" d="M72 1200l28 -258h58l28 256v215h-114v-213zM391 1200l29 -258h57l29 256v215h-115v-213z" />
<glyph unicode="#" horiz-adv-x="1368" d="M168 430h168l-86 -416h96l86 416h385l-86 -416h96l86 416h289v92h-270l82 398h188v92h-168l86 418h-96l-86 -418h-385l86 418h-96l-86 -418h-289v-92h268l-82 -398h-186v-92zM451 522l81 398h386l-82 -398h-385z" />
<glyph unicode="$" horiz-adv-x="1044" d="M123 1029.5q0 -142.5 87 -234.5t282 -131v-592q-141 16 -207 82l-72 -72q94 -84 279 -100v-156h94v156q160 12 280.5 110t120.5 257t-86 255t-315 148v514q94 -18 146 -72q93 -95 97 -244h99q-8 221 -127 314q-98 78 -215 92v57h-94v-57q-145 -14 -257 -99t-112 -227.5z M231 1025.5q0 110.5 78 172t183 70.5v-498q-125 35 -193 90t-68 165.5zM586 70v577q164 -41 223 -96q80 -78 80 -198t-90 -197.5t-213 -85.5z" />
<glyph unicode="%" horiz-adv-x="1728" d="M68 1042q0 -372 276.5 -372t276.5 372q0 180 -70 275q-16 27 -47 49h796l-962 -1366h70l978 1391h-923q-55 23 -119 22q-135 0 -206 -95t-70 -276zM154 1041q0 146 48 230.5t144 84.5t146 -84q47 -85 47 -230q0 -315 -193 -315q-96 0 -145 84q-47 84 -47 230zM1106 361.5 q0 -181.5 69 -276.5t207 -95q277 0 277 372q0 180 -69 276.5t-207 96.5t-207.5 -96t-69.5 -277.5zM1192 360q0 147 48 232.5t142 85.5q195 0 195 -315.5t-192.5 -315.5t-192.5 313z" />
<glyph unicode="&#x26;" horiz-adv-x="1429" d="M106 410q0 -160 119 -295t336 -135q233 0 395 182l117 -162l109 4l-160 234q113 143 170 368h156v92h-236q-27 -159 -106 -312q-19 -38 -41 -69l-349 480q131 45 240 127t109 207t-94.5 203.5t-223.5 78.5t-227 -84t-98 -205q0 -78 54 -159t95 -131q-363 -123 -365 -424z M221 430q0 106 80 191.5t223 136.5l375 -518q-78 -82 -153.5 -121t-170.5 -39q-152 0 -251 102q-102 98 -103 248zM424 1141.5q0 79.5 68 130.5t157.5 51t155.5 -51q65 -53 65 -141q0 -155 -307 -259q-16 23 -35 50q-104 140 -104 219.5z" />
<glyph unicode="'" horiz-adv-x="448" d="M168 1200l29 -258h57l29 256v215h-115v-213z" />
<glyph unicode="(" horiz-adv-x="724" d="M180 489q0 -315 120 -551.5t374 -349.5v88q-209 125 -297 326t-88 488.5t87 487.5t298 325v88q-256 -115 -375 -350.5t-119 -551.5z" />
<glyph unicode=")" horiz-adv-x="724" d="M51 -324v-88q254 113 374 350.5t120 551.5t-120 551t-374 350v-88q209 -125 297 -326t88 -489t-87 -487.5t-298 -324.5z" />
<glyph unicode="*" horiz-adv-x="1003" d="M80 1038q131 -43 154 -43q40 0 231 -41q-145 -164 -160 -166q-12 -4 -102 -126l98 -74q92 123 92 137t109 203q109 -188 108 -203q0 -14 92 -137l99 74q-90 125 -105 126q-14 4 -157 166q201 41 226.5 41t158.5 43l-37 117q-145 -47 -156.5 -58t-206.5 -100 q20 211 29.5 226.5t9.5 167.5h-123q0 -152 8.5 -167t30.5 -227q-195 88 -207 99.5t-155 58.5z" />
<glyph unicode="+" horiz-adv-x="1366" d="M145 614h492v-495h90v495h492v91h-492v489h-90v-489h-492v-91z" />
<glyph unicode="," horiz-adv-x="512" d="M180 -184v-74q133 8 133 221v166h-114v-129h51q-2 -125 -18.5 -155t-51.5 -29z" />
<glyph unicode="-" horiz-adv-x="704" d="M70 514h561v92h-561v-92z" />
<glyph unicode="." horiz-adv-x="512" d="M209 0h115v131h-115v-131z" />
<glyph unicode="/" horiz-adv-x="575" d="M0 -37h94l479 1428h-94z" />
<glyph unicode="0" horiz-adv-x="1087" d="M96 696q0 -340 110 -527t337 -187t337.5 188t110.5 527t-109.5 527.5t-336.5 188.5t-338 -188.5t-111 -528.5zM201 699.5q0 289.5 86 459.5q82 168 256 168t260 -170q84 -172 84 -463t-86 -458q-82 -168 -256 -168t-260 170q-84 172 -84 461.5z" />
<glyph unicode="1" horiz-adv-x="1087" d="M303 0h500v92h-197v1299l-303 -41v-72h197v-1186h-197v-92z" />
<glyph unicode="2" horiz-adv-x="1087" d="M111 29l2 -29h817l12 330h-90l-10 -238h-625q18 147 116.5 283.5t323.5 275.5q143 88 204.5 179t62 237t-102 246t-280.5 100t-287 -121l63 -63q76 98 234 98q111 0 192 -78q76 -80 76 -199.5t-63 -194.5t-185 -150q-258 -158 -360 -351q-109 -201 -100 -325z" />
<glyph unicode="3" horiz-adv-x="1087" d="M160 1038h98q2 141 73 215t189 74q119 0 192 -78t72.5 -200.5t-86.5 -202.5q-43 -39 -97 -54.5t-120 -23.5l-37 -4v-80l91 2q147 2 239 -80t92 -221t-95 -228t-242 -89t-240 98l-74 -64q131 -121 318.5 -120.5t312.5 112.5q123 113 123 277t-83 254t-224 112 q227 87 227 316q0 156 -102.5 258t-263.5 102t-259 -98t-104 -277z" />
<glyph unicode="4" horiz-adv-x="1087" d="M41 410l100 -2h537v-408h215v92h-125v316h227v81h-227v914h-90zM184 489l494 783v-783h-494z" />
<glyph unicode="5" horiz-adv-x="1087" d="M162 680l22 -9q30 -12 60 -40q123 172 305 172q150 0 242 -98q90 -100 90 -261t-95.5 -268.5t-242.5 -107.5t-232 82l-75 -54q121 -115 309 -114.5t313 129.5t125 327.5t-117 324.5t-294 126t-312 -137l51 536h590v103h-676z" />
<glyph unicode="6" horiz-adv-x="1087" d="M133 659q0 -679 436 -677q180 0 294 126.5t114 326.5t-109 324t-276 124q-199 0 -356 -178q4 278 84.5 450t279.5 172q117 0 184 -82l58 70q-102 98 -252 98q-219 0 -338 -194.5t-119 -559.5zM236 569v35q70 84 159.5 138t182.5 55q137 0 216.5 -98.5t79.5 -263.5 t-82.5 -266t-224.5 -101q-141 0 -236 126t-95 375z" />
<glyph unicode="7" horiz-adv-x="1087" d="M131 1081h94v207h613q-248 -314 -320 -709q-35 -189 -49 -336t-14 -151v-92h270v92h-164q0 326 96 639q91 311 285 567v93h-811v-310z" />
<glyph unicode="8" horiz-adv-x="1087" d="M86 385q0 -178 129 -291t330 -112q201 0 327.5 111.5t126.5 289.5q0 123 -67 219q-68 94 -221 133q245 69 245 318q0 158 -118.5 259t-295.5 101t-294 -102t-117 -260q0 -125 68 -207q63 -80 178 -109q-141 -35 -216 -128t-75 -222zM190.5 387q-0.5 141 95 223t257.5 82 t258 -83t96 -224t-97 -229t-258 -88t-256 89t-95.5 230zM229 1046q0 126 90.5 203.5t226.5 77.5t224 -77.5t88 -203.5t-85 -199t-229 -73t-229.5 73t-85.5 199z" />
<glyph unicode="9" horiz-adv-x="1087" d="M108.5 957.5q0.5 -195.5 106.5 -320.5t291.5 -125t343.5 176q-2 -281 -85 -450.5t-267 -169.5q-123 0 -191 75l-59 -67q100 -94 260 -94q215 0 329.5 200.5t114.5 557.5t-112 515q-115 158 -309.5 158t-308.5 -130t-113.5 -325.5zM213 958q0 168 82 268.5t227 100.5 t238 -125q90 -127 90 -377v-37q-70 -82 -162 -136t-178 -54q-135 0 -216 96t-81 264z" />
<glyph unicode=":" horiz-adv-x="512" d="M209 0h115v131h-115v-131zM209 778h115v131h-115v-131z" />
<glyph unicode=";" horiz-adv-x="512" d="M180 -184v-74q133 8 133 221v166h-114v-129h51q-2 -125 -18.5 -155t-51.5 -29zM209 778h115v131h-115v-131z" />
<glyph unicode="&#x3c;" horiz-adv-x="1366" d="M145 614l1074 -456v102l-949 395l949 396v102l-1074 -457v-82z" />
<glyph unicode="=" horiz-adv-x="1366" d="M156 559h1073v90h-1073v-90zM156 846h1073v90h-1073v-90z" />
<glyph unicode="&#x3e;" horiz-adv-x="1366" d="M147 158l1074 456v82l-1074 457v-102l947 -396l-947 -395v-102z" />
<glyph unicode="?" horiz-adv-x="917" d="M61 1034h97q0 131 79 209t203.5 78t206.5 -84t82 -199q0 -156 -102 -221q-74 -47 -183 -47q-39 0 -77 6l-17 -6l37 -393h49l25 297h22q160 0 254 107.5t94 250.5t-102 262t-285.5 119t-283.5 -113q-98 -115 -99 -266zM350 0h115v131h-115v-131z" />
<glyph unicode="@" horiz-adv-x="1363" d="M157.5 808q0.5 -230 157.5 -407q160 -176 412 -176q176 0 321.5 85t194.5 175h-69q-53 -80 -178.5 -144.5t-278.5 -64.5q-195 0 -350.5 148.5t-155.5 377t149.5 382.5t350.5 153.5t330.5 -129.5t129.5 -294t-90 -282.5t-172 -117.5q-14 0 -26 12q-8 12 -9 27l119 559h-84 l-20 -100q-20 59 -81.5 93t-113.5 34q-158 0 -250 -132t-92 -273.5t69 -210.5t151 -68.5t145 41.5q57 41 90 86q10 -76 31 -103q18 -29 39 -28q125 0 235.5 135t110.5 322.5t-144 334.5q-145 145 -370 145.5t-388.5 -175t-163 -405.5zM436 732q0 120 69 234t187 113 q74 0 120 -50t46 -124q0 -125 -73.5 -256t-178.5 -131q-59 0 -117 47q-53 47 -53 167z" />
<glyph unicode="A" horiz-adv-x="1343" d="M-47 0h291v92h-2l149 436h561l154 -436h-174v-92h461v92h-172l-424 1206h174v93h-393l-449 -1299h-176v-92zM424 621l250 727l248 -727h-498z" />
<glyph unicode="B" horiz-adv-x="1153" d="M35 1298h178v-1300l373 2q227 0 357 101t130 296q0 127 -74 216t-206 124q98 35 154 108t57 189q0 172 -110 264t-308 93h-551v-93zM328 92v588h252q182 0 280 -73t98 -217t-101 -221t-282 -77h-247zM328 772v526h252q143 0 226 -70.5t83 -191.5t-90 -192.5t-238 -71.5 h-233z" />
<glyph unicode="C" horiz-adv-x="1536" d="M318 176q190 -197 500 -196h3q472 0 652 473l-95 55q-82 -225 -223 -330q-139 -98 -332 -98q-256 0 -418.5 175t-162.5 443t160.5 441.5t412.5 173.5q176 0 325.5 -96.5t184.5 -270.5h96v322h-94v-105q-102 133 -240 191.5t-268 58.5q-305 0 -499 -200 q-194 -199 -194 -518q0 -321 192 -519z" />
<glyph unicode="D" horiz-adv-x="1449" d="M16 1298h193v-1298h401q414 0 580 209q164 211 164 502.5t-181.5 485.5t-560.5 194h-596v-93zM324 92v1206h299q293 0 456 -157q160 -158 160 -451t-156 -446q-158 -152 -456 -152h-303z" />
<glyph unicode="E" horiz-adv-x="1236" d="M31 1298h178v-1298h936v92h-821v574h577v92h-577v540h727v-245h92v338h-1112v-93z" />
<glyph unicode="F" horiz-adv-x="1087" d="M31 0h295v670l512 -2v94h-512v536h671v-247h93v340h-1059v-93h180v-1206h-180v-92z" />
<glyph unicode="G" horiz-adv-x="1622" d="M102 693q0 -314 204 -514q203 -200 509 -200q1 0 2 1q307 0 502 176q188 174 192 471h-692v-92h574q-29 -217 -190 -336t-376 -119q-268 0 -440 174q-170 174 -170 442t163 442.5t421 174.5q176 0 330.5 -99.5t205.5 -277.5h93v352h-93v-137q-90 121 -234 191.5 t-304 70.5q-299 0 -498 -203t-199 -517z" />
<glyph unicode="H" horiz-adv-x="1409" d="M39 1298h170v-1206h-168v-92h283v682h759v-590h-178v-92h293v1298h168v93h-463v-93h180v-526h-759v619h-285v-93z" />
<glyph unicode="I" horiz-adv-x="575" d="M55 0h465v92h-176v1299h-115v-1299h-174v-92zM227 1495h115v131h-115v-131z" />
<glyph unicode="J" horiz-adv-x="555" d="M0 -432q174 0 257 81t83 253v1396h199v93h-523v-93h209v-1409q0 -123 -50 -173t-171 -50z" />
<glyph unicode="K" horiz-adv-x="1193" d="M27 1298h184v-1298h307v92h-192v1206h190v93h-489v-93zM340 731l578 -639l79 -92h232v92h-150l-592 649l564 557h149v93h-190l-92 -93z" />
<glyph unicode="L" horiz-adv-x="1044" d="M33 0h987v451h-111v-359h-573v1206h2v93h-305v-93h188v-1206h-188v-92z" />
<glyph unicode="M" horiz-adv-x="1748" d="M39 1298h180v-1298h262v92h-166v1243l541 -1335h23l544 1331v-1331h289v92h-174v1206h174v93h-358l-477 -1166l-482 1166h-356v-93z" />
<glyph unicode="N" horiz-adv-x="1449" d="M20 1298h187v-1298h293v92h-197v1174l838 -1284h108v1316h181v93h-277v-1239q-196 313 -349 542q-251 372 -456 697h-328v-93z" />
<glyph unicode="O" horiz-adv-x="1599" d="M102 697q0 -310 199 -514q198 -203 499 -203h3q303 0 501.5 202.5t198.5 512.5t-198 515q-201 203 -503 203t-501 -203t-199 -513zM217 696q0 266 166 441.5t421 175.5t421 -176q164 -177 164 -443t-164 -440t-420 -174t-422 175t-166 441z" />
<glyph unicode="P" d="M33 0h299v573h317q201 0 322 111t121 301.5t-123 297.5t-340 108h-596v-93h184v-1206h-184v-92zM332 666v632h276q190 0 279.5 -76.5t89.5 -239.5q0 -316 -364 -316h-5h-276z" />
<glyph unicode="Q" horiz-adv-x="1599" d="M102 697q0 -310 199 -515q135 -141 354 -188q-131 -14 -196 -70l43 -61q82 59 178 59q52 0 183 -58q227 -99 304 -149l56 84q-123 68 -245 122t-138 59q281 16 465 202q198 205 198 514t-198 514q-201 203 -503 203t-501 -203t-199 -513zM217 696q0 266 166 441.5 t421 175.5t421 -176q164 -177 164 -443t-164 -440t-420 -174t-422 175t-166 441z" />
<glyph unicode="R" horiz-adv-x="1173" d="M6 1298h205v-1300h115v696h307l313 -694h258v92h-178l-278 613q319 66 319 352q0 145 -106.5 239.5t-270.5 94.5h-684v-93zM326 786v512h340q133 0 208 -69q78 -67 78 -188t-85 -188t-238 -67h-303z" />
<glyph unicode="S" horiz-adv-x="1110" d="M88 0h94v186q68 -105 171 -155.5t220 -50.5q188 0 317.5 110.5t129.5 275.5t-102.5 261t-382.5 164q-154 37 -246 98q-90 61 -90 171.5t83 181.5t210 71q76 0 141 -11.5t105.5 -42t57.5 -59.5t28 -58q20 -51 20 -100v-26h108q0 30 -8 84.5t-22 83.5q-55 107 -138 154 q-105 59 -169 67t-117 8q-170 0 -288 -98t-118 -250t101 -240q100 -92 317 -143t306 -120t89 -192.5t-95 -206.5t-247 -83t-266.5 105t-114.5 243v49h-94v-477z" />
<glyph unicode="T" horiz-adv-x="1173" d="M35 952h94v346h401v-1206h-190v-92h305v1298h402v-182h94v275h-1106v-439z" />
<glyph unicode="U" horiz-adv-x="1323" d="M6 1298h178v-882q0 -213 124 -325q123 -112 352 -112q0 1 2 1q230 0 352.5 112.5t122.5 323.5v882h178v93h-293v-992q0 -319 -363 -319q-170 0 -265 82t-95 241v895h176v93h-469v-93z" />
<glyph unicode="V" horiz-adv-x="1343" d="M-45 1298h180l498 -1312h96l481 1312h181v93h-449v-93h170l-422 -1146l-438 1146l-31 93h-266v-93z" />
<glyph unicode="W" horiz-adv-x="1941" d="M-41 1298h174l393 -1312h95l346 1343l368 -1343h90l379 1312h174v93h-448v-93h178l-322 -1157l-315 1157l-27 93h-145l-20 -93l-297 -1157l-332 1157l-25 93h-266v-93z" />
<glyph unicode="X" horiz-adv-x="1343" d="M29 0h489v92h-182l326 520l327 -520h2l56 -92h268v92h-195l-399 627l364 579h185v93h-467v-93h172l-313 -491l-371 584h-262v-93h192l383 -598l-383 -608h-192v-92z" />
<glyph unicode="Y" horiz-adv-x="1236" d="M-39 1298h180l426 -671v-535h-192v-92h307v627l426 671h166v93h-457v-93h180l-362 -571l-361 571h-2l-57 93h-254v-93z" />
<glyph unicode="Z" d="M55 0h1012v358h-94v-266h-780l854 1208v91h-947v-93h807l-852 -1206v-92z" />
<glyph unicode="[" horiz-adv-x="704" d="M240 -412h434v93h-328v1617h328v93h-434v-1803z" />
<glyph unicode="\" horiz-adv-x="575" d="M0 1391l479 -1420h96l-479 1420h-96z" />
<glyph unicode="]" horiz-adv-x="704" d="M31 -319v-93h434l2 1803h-436v-93h327l2 -1617h-329z" />
<glyph unicode="^" horiz-adv-x="1343" d="M225 877l62 -56l385 461l385 -461l61 56l-446 536z" />
<glyph unicode="_" horiz-adv-x="1024" d="M0 -154v-102h1024v102h-1024z" />
<glyph unicode="`" horiz-adv-x="681" d="M170 1415l244 -317h78l-205 317h-117z" />
<glyph unicode="a" horiz-adv-x="1044" d="M104 277q0 -123 85 -207t217 -84q80 0 175 40t175 111v-137h268v92h-162v629q0 274 -360 274q-89 0 -224 -52l-24 -9l27 -64l23 8q127 42 219 42t162.5 -46.5t70.5 -152.5v-229q-143 79 -298 79t-254 -85q-100 -85 -100 -209zM213 272q0 88 71.5 154t202.5 66t269 -86 v-179q-59 -68 -149.5 -113.5t-183.5 -45.5t-151.5 58t-58.5 146z" />
<glyph unicode="b" horiz-adv-x="1259" d="M29 1298h176v-1298h106v195q144 -209 366 -209t359.5 143.5t137.5 366.5t-138 360q-135 139 -348 139q-102 0 -203.5 -52t-173.5 -175v623h-282v-93zM309 489.5q0 186.5 112 302.5t270 116h1q160 0 266.5 -116t106.5 -298t-105.5 -301t-269.5 -119t-272.5 114.5 t-108.5 301z" />
<glyph unicode="c" horiz-adv-x="1044" d="M84 479q0 -219 132 -363t347 -145q145 0 255 76t165 215l-86 37q-43 -102 -126 -166.5t-206 -64.5q-168 0 -270 114.5t-102 300.5t99 301t259 115q115 0 209 -72t100 -227h88v307h-88v-69q-101 157 -306.5 157t-337.5 -148.5t-132 -367.5z" />
<glyph unicode="d" horiz-adv-x="1216" d="M74 487.5q0 -217.5 137 -359.5t342 -142q235 0 375 207v-193h282v92h-176v1299h-106v-623q-78 127 -178 177t-203 50q-205 0 -339 -145t-134 -362.5zM174 487.5q0 173.5 106.5 296.5t267.5 123t271.5 -121t110.5 -299t-106 -296q-105 -118 -267 -118l-1 1 q-163 0 -273 119q-109 121 -109 294.5z" />
<glyph unicode="e" d="M82 482.5q0 -222.5 141 -366.5t359 -145q97 0 252 61l30 11l-24 78l-27 -11q-138 -53 -215 -53q-180 0 -290.5 116t-121.5 288h875q-12 254 -144 394t-344.5 140t-351.5 -145t-139 -367.5zM190 553q23 145 103 231q109 121 270.5 121t263.5 -98q101 -100 121 -254h-758z " />
<glyph unicode="f" horiz-adv-x="512" d="M47 877h150v-785h2v-92h295v92h-191v785h191v92h-191v194q0 158 131 158q104 0 133 -117l95 15q-12 76 -72 135q-55 59 -157.5 59t-170.5 -74q-66 -76 -65 -196v-174h-150v-92z" />
<glyph unicode="g" horiz-adv-x="1216" d="M80 478q0 -214 138 -353t341 -139q109 0 215 53q104 53 172 174v-246q0 -158 -104.5 -243.5t-270.5 -85.5q-56 0 -177 27l-23 5l-25 -92q15 -8 95.5 -22.5t119.5 -14.5q217 0 354.5 119t137.5 317v900h178v92h-285v-211q-92 141 -188 190q-98 47 -197 47 q-201 0 -342 -151q-139 -152 -139 -366zM188 482q0 176 109 298q109 123 266.5 123t272.5 -123q110 -123 110 -297t-109.5 -290.5t-272.5 -116.5t-269 114q-107 114 -107 292z" />
<glyph unicode="h" horiz-adv-x="1110" d="M27 1298h176v-1206h4v-92h262v92h-160v639q72 70 172 119t184.5 49t127.5 -44t43 -126v-729h262v92h-156v649q0 115 -72 185q-71 69 -185 69h-3q-192 0 -373 -157v553h-282v-93z" />
<glyph unicode="i" horiz-adv-x="512" d="M49 877h170v-785h2v-92h271v92h-166v877h-277v-92zM162 1330q0 -34 24.5 -58.5t57.5 -24.5t57.5 24.5t24.5 58.5t-25 58.5t-57 24.5q-33 0 -57.5 -24.5t-24.5 -58.5z" />
<glyph unicode="j" horiz-adv-x="491" d="M8 -328v-92q13 -1 26 -1q132 0 210 74q86 81 86 226v1090h-285v-92h178v-971q0 -176 -117 -222q-32 -13 -76 -13q-10 0 -22 1zM166 1330q0 -34 24.5 -58.5t57.5 -24.5t57.5 24.5t24.5 58.5t-24.5 58.5t-57.5 24.5t-57.5 -24.5t-24.5 -58.5z" />
<glyph unicode="k" horiz-adv-x="1067" d="M27 1298h178v-1206h2v-92h282v92h-178v408l574 -500h209v92h-148l-504 422l531 363h104v92h-131q-4 -2 -45 -31t-114.5 -80t-156.5 -107.5t-168 -114.5t-151 -101v856h-284v-93z" />
<glyph unicode="l" horiz-adv-x="491" d="M16 1298h177v-1298h280v92h-174v1299h-283v-93z" />
<glyph unicode="m" horiz-adv-x="1728" d="M25 877h176v-877h266v92h-160v639q72 68 169 118t181 50q164 0 164 -170v-729h107v723q176 176 352 176q78 0 120 -45t42 -125v-729h258v92h-152v649q0 115 -71 187q-71 68 -178 68h-1q-108 0 -218 -56.5t-165 -118.5q-53 174 -244.5 174t-363.5 -157v131h-282v-92z" />
<glyph unicode="n" horiz-adv-x="1087" d="M16 877h177v-877h264v92h-158v639q72 68 171 118t182 50t126 -44t43 -126v-729h260v92h-153v649q0 115 -72 185q-71 69 -183 69h-3q-190 0 -371 -157v131h-283v-92z" />
<glyph unicode="o" d="M84 485.5q0 -217.5 138 -365.5t344 -148q1 0 1 -1q205 0 346 148q138 149 138 364t-139.5 363.5t-346.5 148.5t-344 -146t-137 -363.5zM193 483q0 180 105 298t269 118t269.5 -118t105.5 -298t-105 -298q-104 -117 -267 -118q-1 0 -3 1q-164 0 -269 117.5t-105 297.5z " />
<glyph unicode="p" horiz-adv-x="1216" d="M8 877h164v-1311h283v92h-176v539q121 -226 372 -226q211 0 344 145.5t133 367.5t-133 366.5t-338 144.5q-236 0 -378 -223v197h-271v-92zM274 489q0 186 108 300t271.5 114t270 -117t106.5 -301t-104.5 -300.5t-270.5 -116.5t-273.5 117.5t-107.5 303.5z" />
<glyph unicode="q" horiz-adv-x="1216" d="M86 481.5q0 -221.5 132 -365.5t351 -145q249 0 365 224v-537h-172v-92h278v1323h181v92h-287v-203q-74 119 -175 168t-200 49q-203 0 -338 -146t-135 -367.5zM186 486q0 180 106 298q107 119 273 119t270.5 -115t104.5 -301t-109 -303t-272 -117q-1 0 -1 1 q-165 0 -269 116q-103 120 -103 302z" />
<glyph unicode="r" horiz-adv-x="811" d="M45 877h184v-877h306v92h-199v434q0 190 100.5 278.5t308.5 88.5h39v102l-39 2q-17 1 -35 1q-130 0 -245 -60q-60 -31 -111 -112q-16 -25 -18 -29v172h-291v-92z" />
<glyph unicode="s" horiz-adv-x="917" d="M78 0h94v123q98 -154 299 -154q166 0 266.5 78t100.5 204t-67 190t-253 99q-186 36 -238 72q-53 36 -53 114q-1 77 57 129t162.5 52t180.5 -68.5t78 -174.5h90v276h-90v-76q-99 131 -264 131h-5q-129 0 -217 -73.5t-88 -199.5t78 -183t247 -86t228 -72t59 -129t-77 -146 q-78 -55 -201 -55t-207 76t-86 209h-94v-336z" />
<glyph unicode="t" horiz-adv-x="532" d="M6 877h172v-717q0 -183 174 -183l135 23v92l-114 -18q-47 0 -67.5 23.5t-20.5 82.5v697h202v92h-202v219l-107 -2v-217h-172v-92z" />
<glyph unicode="u" horiz-adv-x="1110" d="M27 877h170v-650q0 -115 65 -178t179 -63t185 34q139 66 193 117v-137h275v92h-168v877h-107v-713q-72 -72 -168 -123t-180 -51t-127 43q-41 45 -41 121v723h-276v-92z" />
<glyph unicode="v" horiz-adv-x="1067" d="M-4 877h160l342 -891h98l328 891h149v92h-215l-313 -848l-281 756h133v92h-401v-92z" />
<glyph unicode="w" horiz-adv-x="1536" d="M6 877h127l277 -891h104l244 850l252 -850h98l289 891h137v92h-213l-27 -92l-237 -709l-223 709h108v92h-367v-92h113l-231 -730l-224 730l-26 92h-201v-92z" />
<glyph unicode="x" horiz-adv-x="1087" d="M53 877h125l301 -377l-383 -500h318v92h-127l252 334l272 -334h4l70 -92h166v92h-121l-330 408l295 377h131v92h-356v-92h104l-235 -302l-240 302h115v92h-361v-92z" />
<glyph unicode="y" horiz-adv-x="1087" d="M4 877h160l348 -850l-164 -461h94l496 1311h147v92h-403v-92h154l-273 -721l-295 721l-35 92h-229v-92z" />
<glyph unicode="z" horiz-adv-x="980" d="M92 0h799v354h-86v-262h-596l684 787v90h-752v-92h633l-682 -785v-92z" />
<glyph unicode="{" horiz-adv-x="681" d="M98 434q193 0 193 -291v-280q0 -117 56 -196t204 -79h33v97q-96 0 -139.5 44t-43.5 193v240q0 143 -53 223t-137 104q86 25 138 104t52 224v240q0 147 43 192t140 45v97h-33q-147 0 -203.5 -80t-56.5 -195v-280q0 -291 -193 -291v-111z" />
<glyph unicode="|" horiz-adv-x="1015" d="M455 -459h106v1850h-106v-1850z" />
<glyph unicode="}" horiz-adv-x="681" d="M98 -315v-97h33q145 0 205 80q55 80 55 195v280q0 131 45.5 211t147.5 80v111q-102 0 -147.5 80t-45.5 211v280q0 117 -56 196t-204 79h-33v-97q96 0 139.5 -44t43.5 -193v-240q0 -143 53 -223t137 -105q-86 -25 -138 -103.5t-52 -223.5v-240q0 -150 -43 -193.5 t-140 -43.5z" />
<glyph unicode="~" horiz-adv-x="1343" d="M135 596q165 131 289 131q80 0 237 -77t258 -77t179 48q82 48 110 73l-2 111q-85 -60 -149 -95.5t-143.5 -35.5t-236.5 77t-255 76q-141 0 -287 -120v-111z" />
<glyph unicode="&#xa1;" horiz-adv-x="512" d="M199 776h114v193h-114v-193zM203 20v-442h106v436l-24 586h-58z" />
<glyph unicode="&#xa2;" horiz-adv-x="1044" d="M84 473q0 -217 133 -360q61 -68 170 -113l-113 -434h70l107 416q47 -10 112 -11q145 0 255 76t165 215l-86 37q-43 -102 -126 -166.5t-206 -64.5q-53 0 -90 10l203 782q43 -20 82 -49q94 -70 100 -225h88v368h-88v-131q-49 76 -129 117l-29 14l107 416h-70l-102 -397 q-33 8 -86 8q-201 0 -334 -145.5t-133 -362.5zM193 477q0 182 99 295t259 113q32 0 61 -6l-200 -783q-72 33 -117 84q-102 115 -102 297z" />
<glyph unicode="&#xa3;" horiz-adv-x="1067" d="M88 161q0 -77 51 -128t133 -51q135 0 220 168q168 -168 301 -168q106 0 172 86q65 88 65 221v18h-82q-4 -123 -40 -181t-108.5 -58t-120.5 34q-73 52 -161 129q10 59 15 82q6 32 6 92.5t-15 120.5q-12 66 -32 115h237v92h-268q-41 102 -74 198.5t-33 187.5t71 149.5 t181.5 58.5t170.5 -71t65 -179h100q-4 158 -94 247t-253 89t-254 -91t-91 -232t106 -357h-245v-92h276q68 -164 68 -279l-9 -75q-78 57 -162.5 57t-142.5 -53q-53 -53 -53 -130zM164 164q0 49 41 77.5t81 28.5q73 0 142 -65q-60 -150 -158 -150q-47 0 -76.5 30t-29.5 79z " />
<glyph unicode="&#xa4;" horiz-adv-x="1536" d="M33 518h151q51 -246 227 -390q181 -148 440 -148t417.5 124t244.5 349l-94 55q-80 -213 -203 -314q-139 -114 -352 -114q-214 0 -364 124q-144 117 -195 314h801v90h-819q-4 46 -4 94.5t8 102.5h815v90h-797q51 189 193 301q147 117 354 117q183 0 324 -93 q156 -103 186 -274h96v322h-94v-105q-92 119 -224 184.5t-273.5 65.5t-252 -38t-196.5 -105q-178 -140 -232 -375h-157v-90h141q-6 -53 -6 -102t4 -95h-139v-90z" />
<glyph unicode="&#xa5;" d="M0 627h494l14 -33v-502h-193v-92h506v92h-198v514l10 21h493v92h-448l121 246h327v92h-282l119 241h170v93h-461v-93h180l-117 -241h-311l-111 241h183v93h-496v-93h180l113 -241h-293v-92h336l115 -246h-451v-92zM467 965h223l-115 -238z" />
<glyph unicode="&#xa6;" horiz-adv-x="1015" d="M455 285v-744h106v744h-106zM455 645h106v746h-106v-746z" />
<glyph unicode="&#xa7;" horiz-adv-x="897" d="M33 545q0 -117 70.5 -195t215.5 -141l166 -72q125 -55 183 -119q55 -66 55 -161t-83 -150t-181.5 -55t-176 62t-85.5 194h-95q8 -178 118 -260t251.5 -82t245.5 82t104 231t-137 262q88 57 133 138t45 155q0 117 -70.5 195t-216.5 141l-165 72q-125 55 -181.5 118.5 t-56.5 160t82 151.5t180.5 55t177 -62t86.5 -194h97q-8 176 -119 259t-252.5 83t-245.5 -82t-104 -234.5t137 -258.5q-88 -57 -133 -138.5t-45 -154.5zM131 556q0 148 150 243l292 -133q112 -53 151.5 -105.5t39.5 -133.5q0 -155 -150 -243l-292 131q-110 52 -150.5 106 t-40.5 135z" />
<glyph unicode="&#xa8;" horiz-adv-x="681" d="M98 1188h131v131h-131v-131zM453 1188h131v131h-131v-131z" />
<glyph unicode="&#xa9;" horiz-adv-x="1642" d="M57 728q0 -316 223.5 -539.5t539.5 -223.5t539.5 223.5t223.5 539.5t-223 539.5t-539.5 223.5t-540 -223.5t-223.5 -539.5zM153.5 728q0.5 275 196 471t470.5 196t471 -196t196 -471t-196 -471t-471 -196t-471 196t-195.5 471zM444.5 719.5q-0.5 -189.5 110.5 -307.5 q109 -121 274 -121q117 0 206 66.5t126 195.5l-90 33q-27 -92 -93.5 -148.5t-152.5 -56.5q-135 0 -204 104q-70 100 -70 243.5t74 240.5q74 92 211 92q84 0 140 -50t81 -116l96 29q-103 215 -315 217q-184 0 -288.5 -116t-105 -305.5z" />
<glyph unicode="&#xaa;" horiz-adv-x="681" d="M78 983q0 -74 54 -125t153.5 -51t216.5 90v-82h174v55h-105v377q0 166 -235 166q-185 0 -248 -133l53 -12q18 41 65.5 69.5t127.5 28.5q168 0 168 -119v-137q-86 47 -192 47t-169 -50t-63 -124zM149.5 978q0.5 52 46.5 92t131 40t175 -51v-107q-96 -96 -211 -96 q-66 0 -104 35t-37.5 87z" />
<glyph unicode="&#xab;" horiz-adv-x="960" d="M61 489l314 -489h112l-311 489l311 490h-112zM498 489l313 -489h113l-312 489l312 490h-113z" />
<glyph unicode="&#xac;" horiz-adv-x="2070" d="M29 592l43 -43l82 82l407 -410l125 125l-43 43l-74 -74l-299 297q2 68 25 137t61 105q37 41 75 39t81 -41l340 -340l49 49l-338 338q0 168 84 246q35 39 76 37t78 -41l229 -230v-911h307v92h-192v713l117 117l-43 43l-70 -72l-4 4v401h190v93h-489v-93h184v-286l-184 184 q-57 55 -120.5 54t-114 -51t-69.5 -107q-30 -91 -30 -154q-108 53 -196 -35q-46 -45 -69.5 -109.5t-25.5 -131.5l-61 61zM940 -305q0 -70 49 -115q45 -49 115 -49t117 49q49 45 49 115t-48 118t-117 48t-117 -48t-48 -118zM1159 731l578 -639l80 -92h231v92h-150l-591 649 l563 557h149v93h-190l-92 -93z" />
<glyph unicode="&#xad;" horiz-adv-x="704" d="M70 514h561v92h-561v-92z" />
<glyph unicode="&#xae;" horiz-adv-x="1642" d="M57 728q0 -316 223.5 -539.5t539.5 -223.5t539.5 223.5t223.5 539.5t-223 539.5t-539.5 223.5t-540 -223.5t-223.5 -539.5zM153.5 728q0.5 275 196 471t470.5 196t471 -196t196 -471t-196 -471t-471 -196t-471 196t-195.5 471zM512 317h106v349h66q123 0 186 -56.5 t162 -292.5h123q-83 183 -128.5 256.5t-145.5 106.5q123 8 184 74q59 66 59 151.5t-64 150t-206 64.5h-342v-803zM618 750v288h175q100 0 161 -28q56 -29 56 -104t-47.5 -115.5t-180.5 -40.5h-164z" />
<glyph unicode="&#xaf;" horiz-adv-x="681" d="M12 1229h658v59h-658v-59z" />
<glyph unicode="&#xb0;" horiz-adv-x="811" d="M117 1124q0 -119 85 -203.5t204 -84.5t203.5 84.5t84.5 203.5t-85 204t-203 85q-119 0 -204 -85t-85 -204zM199 1124q0 86 60 146.5t147 60.5q86 0 146 -60.5t60 -146.5t-60 -146t-146 -60t-146.5 60t-60.5 146z" />
<glyph unicode="&#xb1;" horiz-adv-x="1366" d="M145 0h1074v90h-1074v-90zM145 772h492v-493h90v493h492v90h-492v494h-90v-494h-492v-90z" />
<glyph unicode="&#xb2;" horiz-adv-x="661" d="M49 694l2 -14h506l8 225h-55l-6 -178h-387q10 78 71 149t174 129t153 105t40 125t-63 129q-68 51 -177.5 51t-176.5 -62t-66 -165v-17h59v13q0 82 47 134t132.5 52t132 -41t46.5 -103t-38.5 -101.5t-114.5 -77.5q-160 -80 -223 -180.5t-64 -172.5z" />
<glyph unicode="&#xb3;" horiz-adv-x="661" d="M53 903q6 -104 84 -168.5t196 -64.5t194.5 58.5t76.5 152.5q0 155 -190 182q74 25 108 65q33 43 33 113t-64.5 122t-163.5 52t-160.5 -52t-64.5 -142h62q4 74 47 111.5t115 37.5t117.5 -40t45.5 -104.5t-53 -105.5t-133 -41l-22 2v-49l55 4q88 7 149 -43q55 -41 56 -112 q0 -72 -59.5 -119t-149.5 -47t-150.5 53t-68.5 135h-60z" />
<glyph unicode="&#xb4;" horiz-adv-x="681" d="M190 1098h78l244 317h-117z" />
<glyph unicode="&#xb5;" d="M43 877h170v-1311h100v491q56 -71 160 -71t197.5 45t154.5 106v-137h275v92h-168v877h-275v-92h168v-621q-72 -72 -167 -123t-183 -51q-156 0 -156 164v723h-276v-92z" />
<glyph unicode="&#xb6;" horiz-adv-x="1323" d="M96 974q0 -185 122 -307t327 -122v-979h131v1687h266v-1687h131v1687h193v138h-695q-215 0 -345 -116t-130 -301z" />
<glyph unicode="&#xb7;" horiz-adv-x="598" d="M209 588h115v131h-115v-131z" />
<glyph unicode="&#xb8;" horiz-adv-x="681" d="M147 -369v-65h29q313 0 313 192q0 68 -42 111t-107 43l14 74h-65l-29 -150q57 0 92 -24.5t35 -75.5q0 -72 -111 -100q-34 -9 -75 -7z" />
<glyph unicode="&#xb9;" horiz-adv-x="661" d="M176 680h311v47h-120v676h-189v-47h121v-629h-123v-47z" />
<glyph unicode="&#xba;" horiz-adv-x="724" d="M51 1106q0 -129 89 -218t225.5 -89t224.5 88t88 218t-89 219t-224 89t-224.5 -89t-89.5 -218zM121 1106q0 109 68.5 178.5t174 69.5t177.5 -72q67 -72 67 -179.5t-68.5 -177t-173.5 -69.5t-175.5 71t-69.5 179z" />
<glyph unicode="&#xbb;" horiz-adv-x="960" d="M39 0h113l313 489l-313 490h-113l311 -490zM475 0h113l313 489l-313 490h-113l311 -490z" />
<glyph unicode="&#xbc;" horiz-adv-x="1728" d="M178 680h311v47h-120v676h-189v-47h121v-629h-123v-47zM256 0h72l981 1391h-72zM893 254q20 -15 33 -43h331v-164h-96v-47h230v47h-76v164h139v43h-139v475h-58zM952 254l305 408v-408h-305z" />
<glyph unicode="&#xbd;" horiz-adv-x="1728" d="M176 680h311v47h-120v676h-189v-47h121v-629h-123v-47zM254 0h72l981 1391h-72zM1020 14l2 -14h506l8 225h-55l-6 -178h-388q10 78 71.5 149t174.5 129t153 105t40 125t-64 129q-68 51 -177.5 51t-174.5 -63q-68 -61 -68 -164v-16h60v12q0 82 47 134t132 52t132 -41 t47 -103t-39 -101t-114 -78q-160 -80 -223.5 -180.5t-63.5 -172.5z" />
<glyph unicode="&#xbe;" horiz-adv-x="1728" d="M129 903q6 -104 84 -168.5t196 -64.5t194.5 58.5t76.5 152.5q0 155 -191 182q74 25 109 65q33 43 33 113t-65 122t-163.5 52t-160 -52t-64.5 -142h62q4 74 47 111.5t114 37.5q72 0 118 -40t46 -104.5t-53 -105.5t-133 -41l-23 2v-49l56 4q86 7 145 -38.5t59 -116.5 q0 -72 -59 -119t-149 -47t-150.5 53t-69.5 135h-59zM408 0h71l981 1391h-71zM1042 254q8 -6 21 -18q6 -10 12 -25h332v-164h-96v-47h229v47h-76v164h140v43h-140v475h-57zM1102 254l305 408v-408h-305z" />
<glyph unicode="&#xbf;" horiz-adv-x="917" d="M86 -63q0 -142 100 -261t284.5 -118.5t285 113t100.5 266.5h-96q0 -133 -79 -210t-204 -77t-207 83t-82 199q0 156 101 220q76 49 184 49q37 0 78 -6l16 6l-37 393h-49l-24 -297h-23q-160 0 -254 -109t-94 -251zM453 778h114v193h-114v-193z" />
<glyph unicode="&#xc0;" horiz-adv-x="1343" d="M-47 0h291v92h-2l149 436h561l154 -436h-174v-92h461v92h-172l-424 1206h174v93h-393l-449 -1299h-176v-92zM424 621l250 727l248 -727h-498zM502 1831l243 -318h78l-205 318h-116z" />
<glyph unicode="&#xc1;" horiz-adv-x="1343" d="M-47 0h291v92h-2l149 436h561l154 -436h-174v-92h461v92h-172l-424 1206h174v93h-393l-449 -1299h-176v-92zM424 621l250 727l248 -727h-498zM522 1513h78l244 318h-117z" />
<glyph unicode="&#xc2;" horiz-adv-x="1343" d="M-47 0h291v92h-2l149 436h561l154 -436h-174v-92h461v92h-172l-424 1206h174v93h-393l-449 -1299h-176v-92zM371 1522h71l230 213l231 -213h72l-244 297h-119zM424 621l250 727l248 -727h-498z" />
<glyph unicode="&#xc3;" horiz-adv-x="1343" d="M-47 0h291v92h-2l149 436h561l154 -436h-174v-92h461v92h-172l-424 1206h174v93h-393l-449 -1299h-176v-92zM342 1581h55q41 98 121 98q51 0 144.5 -50t155.5 -50q130 0 188 180h-58q-36 -98 -119 -98q-55 0 -146 50t-154.5 50t-109.5 -42t-77 -138zM424 621l250 727 l248 -727h-498z" />
<glyph unicode="&#xc4;" horiz-adv-x="1343" d="M-47 0h291v92h-2l149 436h561l154 -436h-174v-92h461v92h-172l-424 1206h174v93h-393l-449 -1299h-176v-92zM424 621l250 727l248 -727h-498zM430 1604h131v131h-131v-131zM784 1604h131v131h-131v-131z" />
<glyph unicode="&#xc5;" horiz-adv-x="1343" d="M-47 0h291v92h-2l149 436h561l154 -436h-174v-92h461v92h-172l-424 1206h174v93h-393l-449 -1299h-176v-92zM424 621l250 727l248 -727h-498zM485.5 1668q-0.5 -77 55.5 -132q51 -55 130 -55t134 55t55 133t-55 133.5t-133 55.5t-133 -56q-53 -57 -53.5 -134zM547 1670 q0 52 37 89q33 37 87 37t91 -37t37 -90t-37 -90t-90 -37t-90 37q-35 39 -35 91z" />
<glyph unicode="&#xc6;" horiz-adv-x="1921" d="M-23 0h322v92h-162l320 576h432v-576h-232v-92h1172v342h-94v-250h-731v574h581v92h-581v540h823v93h-1370v-93h229q-59 -109 -135 -247t-155 -282t-153.5 -282.5t-134 -246t-95.5 -174.5zM504 760l297 538h88v-538h-385z" />
<glyph unicode="&#xc7;" horiz-adv-x="1536" d="M126.5 693.5q0.5 -319.5 192.5 -517.5q158 -164 410 -192l-29 -148q57 0 92 -24.5t35 -75.5q0 -72 -111 -100q-34 -9 -75 -7l-53 2v-65h28q314 0 314 192q0 68 -42 111t-108 43l13 68h28q472 0 652 473l-95 55q-82 -225 -223 -330q-139 -98 -332 -98q-256 0 -418.5 175 t-162.5 443t160.5 441.5t412.5 173.5q176 0 325.5 -96.5t184.5 -270.5h96v322h-94v-105q-102 133 -240 191.5t-268 58.5q-305 0 -499 -200t-193.5 -519.5z" />
<glyph unicode="&#xc8;" horiz-adv-x="1236" d="M31 1298h178v-1298h936v92h-821v574h577v92h-577v540h727v-245h92v338h-1112v-93zM449 1831l243 -318h78l-205 318h-116z" />
<glyph unicode="&#xc9;" horiz-adv-x="1236" d="M31 1298h178v-1298h936v92h-821v574h577v92h-577v540h727v-245h92v338h-1112v-93zM469 1513h78l244 318h-117z" />
<glyph unicode="&#xca;" horiz-adv-x="1236" d="M31 1298h178v-1298h936v92h-821v574h577v92h-577v540h727v-245h92v338h-1112v-93zM317 1522h72l229 213l232 -213h72l-244 297h-119z" />
<glyph unicode="&#xcb;" horiz-adv-x="1236" d="M31 1298h178v-1298h936v92h-821v574h577v92h-577v540h727v-245h92v338h-1112v-93zM377 1604h131v131h-131v-131zM731 1604h131v131h-131v-131z" />
<glyph unicode="&#xcc;" horiz-adv-x="575" d="M55 0h465v92h-176v1299h-115v-1299h-174v-92zM117 1831l157 -205h-47v-131h115v43l18 -25h78l-205 318h-116z" />
<glyph unicode="&#xcd;" horiz-adv-x="575" d="M55 0h465v92h-176v1299h-115v-1299h-174v-92zM137 1513h78l12 17v-35h115v131h-41l158 205h-117z" />
<glyph unicode="&#xce;" horiz-adv-x="575" d="M-14 1522h71l230 213l231 -213h72l-244 297h-119zM55 0h465v92h-176v1299h-115v-1299h-174v-92zM227 1495h115v131h-115v-131z" />
<glyph unicode="&#xcf;" horiz-adv-x="575" d="M45 1604h131v131h-131v-131zM55 0h465v92h-176v1299h-115v-1299h-174v-92zM227 1495h115v131h-115v-131zM399 1604h131v131h-131v-131z" />
<glyph unicode="&#xd0;" horiz-adv-x="1449" d="M16 1303l193 4v-564h-191v-92h191v-651h401q414 0 580 209q164 211 164 502.5t-181.5 485.5t-560.5 194h-596v-88zM324 92v559h428v92h-428v555h299q293 0 456 -157q160 -158 160 -451t-156 -446q-158 -152 -456 -152h-303z" />
<glyph unicode="&#xd1;" horiz-adv-x="1449" d="M20 1298h187v-1298h293v92h-197v1174l838 -1284h108v1316h181v93h-277v-1239q-196 313 -349 542q-251 372 -456 697h-328v-93zM395 1581h56q41 98 120 98q51 0 144.5 -50t156.5 -50q129 0 187 180h-58q-36 -98 -118 -98q-55 0 -146.5 50t-155 50t-109.5 -42t-77 -138z " />
<glyph unicode="&#xd2;" horiz-adv-x="1599" d="M102 697q0 -310 199 -514t502 -203q303 0 501.5 202.5t198.5 512.5t-198 515q-201 203 -503 203t-501 -203t-199 -513zM217 696q0 266 166 441.5t421 175.5t421 -176q164 -177 164 -443t-164 -440t-420 -174t-422 175t-166 441zM629 1831l243 -318h78l-205 318h-116z" />
<glyph unicode="&#xd3;" horiz-adv-x="1599" d="M102 697q0 -310 199 -514t502 -203q303 0 501.5 202.5t198.5 512.5t-198 515q-201 203 -503 203t-501 -203t-199 -513zM217 696q0 266 166 441.5t421 175.5t421 -176q164 -177 164 -443t-164 -440t-420 -174t-422 175t-166 441zM649 1513h78l244 318h-117z" />
<glyph unicode="&#xd4;" horiz-adv-x="1599" d="M102 697q0 -310 199 -514t502 -203q303 0 501.5 202.5t198.5 512.5t-198 515q-201 203 -503 203t-501 -203t-199 -513zM217 696q0 266 166 441.5t421 175.5t421 -176q164 -177 164 -443t-164 -440t-420 -174t-422 175t-166 441zM498 1522h71l230 213l231 -213h72 l-244 297h-119z" />
<glyph unicode="&#xd5;" horiz-adv-x="1599" d="M102 697q0 -310 199 -514t502 -203q303 0 501.5 202.5t198.5 512.5t-198 515q-201 203 -503 203t-501 -203t-199 -513zM217 696q0 266 166 441.5t421 175.5t421 -176q164 -177 164 -443t-164 -440t-420 -174t-422 175t-166 441zM469 1581h55q41 98 121 98q51 0 144.5 -50 t155.5 -50q130 0 188 180h-58q-36 -98 -119 -98q-55 0 -146 50t-154.5 50t-109.5 -42t-77 -138z" />
<glyph unicode="&#xd6;" horiz-adv-x="1599" d="M102 697q0 -310 199 -514t502 -203q303 0 501.5 202.5t198.5 512.5t-198 515q-201 203 -503 203t-501 -203t-199 -513zM217 696q0 266 166 441.5t421 175.5t421 -176q164 -177 164 -443t-164 -440t-420 -174t-422 175t-166 441zM557 1604h131v131h-131v-131zM911 1604 h131v131h-131v-131z" />
<glyph unicode="&#xd7;" horiz-adv-x="1368" d="M195 233l67 -67l422 422l422 -422l68 67l-422 422l422 422l-68 68l-422 -422l-422 422l-67 -68l421 -422z" />
<glyph unicode="&#xd8;" horiz-adv-x="1599" d="M102 694q0 -313 201 -514l-127 -145l53 -47l127 143q176 -152 447 -151q303 0 501.5 202.5t198.5 515t-200 512.5l129 146l-54 47l-127 -146q-176 156 -463.5 156t-486.5 -203t-199 -516zM217 699q0 263 166 438.5t408 175.5t389 -135l-805 -916q-158 174 -158 437z M426 213l805 915q158 -174 158 -437t-164 -437t-405.5 -174t-393.5 133z" />
<glyph unicode="&#xd9;" horiz-adv-x="1323" d="M6 1298h178v-882q0 -213 124 -325t354.5 -111.5t352.5 113t122 323.5v882h178v93h-293v-992q0 -319 -363 -319q-170 0 -265 82t-95 241v895h176v93h-469v-93zM492 1831l243 -318h78l-205 318h-116z" />
<glyph unicode="&#xda;" horiz-adv-x="1323" d="M6 1298h178v-882q0 -213 124 -325t354.5 -111.5t352.5 113t122 323.5v882h178v93h-293v-992q0 -319 -363 -319q-170 0 -265 82t-95 241v895h176v93h-469v-93zM512 1513h78l244 318h-117z" />
<glyph unicode="&#xdb;" horiz-adv-x="1323" d="M6 1298h178v-882q0 -213 124 -325t354.5 -111.5t352.5 113t122 323.5v882h178v93h-293v-992q0 -319 -363 -319q-170 0 -265 82t-95 241v895h176v93h-469v-93zM360 1522h72l230 213l231 -213h72l-244 297h-119z" />
<glyph unicode="&#xdc;" horiz-adv-x="1323" d="M6 1298h178v-882q0 -213 124 -325t354.5 -111.5t352.5 113t122 323.5v882h178v93h-293v-992q0 -319 -363 -319q-170 0 -265 82t-95 241v895h176v93h-469v-93zM420 1501h131v131h-131v-131zM774 1501h131v131h-131v-131z" />
<glyph unicode="&#xdd;" horiz-adv-x="1236" d="M-39 1298h180l426 -671v-535h-192v-92h307v627l426 671h166v93h-457v-93h180l-362 -571l-361 571h-2l-57 93h-254v-93zM469 1513h78l244 318h-117z" />
<glyph unicode="&#xde;" d="M33 0h299v287h317q201 0 322 110.5t121 300t-127 299.5q-129 106 -351 107h-282v194h186v93h-485v-93h184v-1206h-184v-92zM332 379v633h276q190 0 279.5 -77t89.5 -240q0 -316 -369 -316h-276z" />
<glyph unicode="&#xdf;" horiz-adv-x="1259" d="M33 0h280v1036q0 147 86 221q88 70 220.5 70t227.5 -61t95 -181.5t-72 -180.5t-182 -60h-20v-82q195 0 299 -91t104 -263q0 -133 -76 -234.5t-209 -101.5q-82 0 -118 18v-90l112 -14q186 0 291 125q103 125 103 297t-88.5 273t-233.5 130q111 33 154 109q41 76 41 151 q0 156 -113 250q-115 92 -303 92t-306 -96t-118 -305v-920h-174v-92z" />
<glyph unicode="&#xe0;" horiz-adv-x="1044" d="M104.5 278q-0.5 -123 84.5 -207.5t217 -84.5q80 0 175 40t175 111v-137h268v92h-162v629q0 274 -360 274q-89 0 -224 -52l-24 -9l27 -64l23 8q127 42 219 42t162.5 -46.5t70.5 -152.5v-229q-143 79 -298 79t-254 -85t-99.5 -208zM213 272q0 88 71.5 154t202.5 66t269 -86 v-179q-59 -68 -149.5 -113.5t-183.5 -45.5t-151.5 58t-58.5 146zM352 1415l244 -317h78l-205 317h-117z" />
<glyph unicode="&#xe1;" horiz-adv-x="1044" d="M104.5 278q-0.5 -123 84.5 -207.5t217 -84.5q80 0 175 40t175 111v-137h268v92h-162v629q0 274 -360 274q-89 0 -224 -52l-24 -9l27 -64l23 8q127 42 219 42t162.5 -46.5t70.5 -152.5v-229q-143 79 -298 79t-254 -85t-99.5 -208zM213 272q0 88 71.5 154t202.5 66t269 -86 v-179q-59 -68 -149.5 -113.5t-183.5 -45.5t-151.5 58t-58.5 146zM373 1098h78l243 317h-116z" />
<glyph unicode="&#xe2;" horiz-adv-x="1044" d="M104.5 278q-0.5 -123 84.5 -207.5t217 -84.5q80 0 175 40t175 111v-137h268v92h-162v629q0 274 -360 274q-89 0 -224 -52l-24 -9l27 -64l23 8q127 42 219 42t162.5 -46.5t70.5 -152.5v-229q-143 79 -298 79t-254 -85t-99.5 -208zM213 272q0 88 71.5 154t202.5 66t269 -86 v-179q-59 -68 -149.5 -113.5t-183.5 -45.5t-151.5 58t-58.5 146zM221 1106h72l229 213l232 -213h71l-243 297h-119z" />
<glyph unicode="&#xe3;" horiz-adv-x="1044" d="M104.5 278q-0.5 -123 84.5 -207.5t217 -84.5q80 0 175 40t175 111v-137h268v92h-162v629q0 274 -360 274q-89 0 -224 -52l-24 -9l27 -64l23 8q127 42 219 42t162.5 -46.5t70.5 -152.5v-229q-143 79 -298 79t-254 -85t-99.5 -208zM193 1165h55q41 97 121 99 q51 0 144 -50.5t155 -50.5q130 0 188 180h-57q-35 -96 -119 -98q-55 0 -146 50q-172 94 -264 8q-47 -41 -77 -138zM213 272q0 88 71.5 154t202.5 66t269 -86v-179q-59 -68 -149.5 -113.5t-183.5 -45.5t-151.5 58t-58.5 146z" />
<glyph unicode="&#xe4;" horiz-adv-x="1044" d="M104.5 278q-0.5 -123 84.5 -207.5t217 -84.5q80 0 175 40t175 111v-137h268v92h-162v629q0 274 -360 274q-89 0 -224 -52l-24 -9l27 -64l23 8q127 42 219 42t162.5 -46.5t70.5 -152.5v-229q-143 79 -298 79t-254 -85t-99.5 -208zM213 272q0 88 71.5 154t202.5 66t269 -86 v-179q-59 -68 -149.5 -113.5t-183.5 -45.5t-151.5 58t-58.5 146zM281 1188h131v131h-131v-131zM635 1188h131v131h-131v-131z" />
<glyph unicode="&#xe5;" horiz-adv-x="1044" d="M104.5 278q-0.5 -123 84.5 -207.5t217 -84.5q80 0 175 40t175 111v-137h268v92h-162v629q0 274 -360 274q-89 0 -224 -52l-24 -9l27 -64l23 8q127 42 219 42t162.5 -46.5t70.5 -152.5v-229q-143 79 -298 79t-254 -85t-99.5 -208zM213 272q0 88 71.5 154t202.5 66t269 -86 v-179q-59 -68 -149.5 -113.5t-183.5 -45.5t-151.5 58t-58.5 146zM336 1252q0 -77 53 -132t132 -55t134.5 55t55.5 133t-55.5 133.5t-133.5 55.5t-133 -56q-53 -57 -53 -134zM397 1254q0 52 37 89q33 37 87 37t91 -37t37 -90t-37 -90t-90 -37t-90 37q-35 39 -35 91z" />
<glyph unicode="&#xe6;" horiz-adv-x="1771" d="M111 278q0 -123 90 -207.5t229 -84.5t238.5 63t169.5 144q147 -220 407 -222q55 0 134 24.5t107 36.5l27 11l-53 78l-22 -11q-42 -19 -102 -36t-89 -17q-174 0 -281 117t-118 287h852q-12 231 -136 383t-325 151q-248 0 -393 -221q-50 221 -344 221q-156 0 -244 -61 l49 -64q68 49 187 49.5t190 -47.5q68 -43 68 -151v-229q-140 79 -292.5 79t-250.5 -85t-98 -208zM219 272q0 88 71.5 154t196 66t265.5 -86v-179q-57 -68 -150.5 -113.5t-180.5 -45.5t-144.5 58t-57.5 146zM852 553q23 143 98 231q104 121 263.5 121t256.5 -99t111 -253 h-729z" />
<glyph unicode="&#xe7;" horiz-adv-x="1044" d="M84 479q0 -219 133 -364q106 -113 256 -138l-27 -141q57 0 92 -24.5t35 -75.5q0 -72 -111 -100q-34 -9 -75 -7l-53 2v-65h28q314 0 314 192q0 68 -42 111t-108 43l13 59h24q145 0 255 76t165 215l-86 37q-43 -102 -126 -166.5t-206 -64.5q-168 0 -270 114.5t-102 300.5 t99 301t259 115q115 0 209 -72t100 -227h88v307h-88v-69q-101 157 -306.5 157t-337.5 -148.5t-132 -367.5z" />
<glyph unicode="&#xe8;" d="M82 482.5q0 -222.5 141 -366.5t359 -145q97 0 252 61l30 11l-24 78l-27 -11q-138 -53 -215 -53q-180 0 -290.5 116t-121.5 288h875q-12 254 -144 394t-344.5 140t-351.5 -145t-139 -367.5zM190 553q23 145 103 231q109 121 270.5 121t263.5 -98q101 -100 121 -254h-758z M395 1415l244 -317h78l-205 317h-117z" />
<glyph unicode="&#xe9;" d="M82 482.5q0 -222.5 141 -366.5t359 -145q97 0 252 61l30 11l-24 78l-27 -11q-138 -53 -215 -53q-180 0 -290.5 116t-121.5 288h875q-12 254 -144 394t-344.5 140t-351.5 -145t-139 -367.5zM190 553q23 145 103 231q109 121 270.5 121t263.5 -98q101 -100 121 -254h-758z M416 1098h78l243 317h-116z" />
<glyph unicode="&#xea;" d="M82 482.5q0 -222.5 141 -366.5t359 -145q97 0 252 61l30 11l-24 78l-27 -11q-138 -53 -215 -53q-180 0 -290.5 116t-121.5 288h875q-12 254 -144 394t-344.5 140t-351.5 -145t-139 -367.5zM190 553q23 145 103 231q109 121 270.5 121t263.5 -98q101 -100 121 -254h-758z M264 1106h72l229 213l232 -213h71l-243 297h-119z" />
<glyph unicode="&#xeb;" d="M82 482.5q0 -222.5 141 -366.5t359 -145q97 0 252 61l30 11l-24 78l-27 -11q-138 -53 -215 -53q-180 0 -290.5 116t-121.5 288h875q-12 254 -144 394t-344.5 140t-351.5 -145t-139 -367.5zM190 553q23 145 103 231q109 121 270.5 121t263.5 -98q101 -100 121 -254h-758z M324 1188h131v131h-131v-131zM678 1188h131v131h-131v-131z" />
<glyph unicode="&#xec;" horiz-adv-x="512" d="M51 0h443v92h-166v877h-277v-92h170v-785h-170v-92zM86 1415l244 -317h78l-205 317h-117z" />
<glyph unicode="&#xed;" horiz-adv-x="512" d="M51 0h443v92h-166v877h-277v-92h170v-785h-170v-92zM106 1098h78l244 317h-117z" />
<glyph unicode="&#xee;" horiz-adv-x="512" d="M-45 1106h72l229 213l231 -213h72l-244 297h-118zM51 0h443v92h-166v877h-277v-92h170v-785h-170v-92z" />
<glyph unicode="&#xef;" horiz-adv-x="512" d="M14 1188h131v131h-131v-131zM51 0h443v92h-166v877h-277v-92h170v-785h-170v-92zM369 1188h131v131h-131v-131z" />
<glyph unicode="&#xf0;" horiz-adv-x="1153" d="M94 478q0 -218 139.5 -363.5t354.5 -145.5t344 169.5t129 443.5t-158 497q-48 70 -151 164l258 123l-76 53l-254 -121q-84 63 -223 121l-111 -55q156 -70 225 -117l-268 -127l76 -53l268 127q44 -36 103 -92q125 -139 159 -264q-137 157 -338.5 157t-339 -149.5 t-137.5 -367.5zM203 481q0 178 102 298t267.5 120t271.5 -114.5t106 -291.5t-106.5 -302t-267.5 -125t-267 118.5t-106 296.5z" />
<glyph unicode="&#xf1;" horiz-adv-x="1087" d="M16 877h177v-877h264v92h-158v639q72 68 171 118t182 50t126 -44t43 -126v-729h260v92h-153v649q0 115 -72 185t-186 69q-190 0 -371 -157v131h-283v-92zM213 1165h55q41 97 121 99q51 0 144.5 -50.5t155.5 -50.5q130 0 188 180h-58q-35 -96 -119 -98q-55 0 -146 50 q-172 95 -263 8q-47 -41 -78 -138z" />
<glyph unicode="&#xf2;" d="M84 485.5q0 -217.5 138 -365.5t344 -148.5t347 147.5q138 149 138 364t-139.5 363.5t-346.5 148.5t-344 -146t-137 -363.5zM193 483q0 180 105 298t269 118t269.5 -118t105.5 -298t-105 -298t-270 -117q-164 0 -269 117.5t-105 297.5zM395 1415l244 -317h78l-205 317 h-117z" />
<glyph unicode="&#xf3;" d="M84 485.5q0 -217.5 138 -365.5t344 -148.5t347 147.5q138 149 138 364t-139.5 363.5t-346.5 148.5t-344 -146t-137 -363.5zM193 483q0 180 105 298t269 118t269.5 -118t105.5 -298t-105 -298t-270 -117q-164 0 -269 117.5t-105 297.5zM416 1098h78l243 317h-116z" />
<glyph unicode="&#xf4;" d="M84 485.5q0 -217.5 138 -365.5t344 -148.5t347 147.5q138 149 138 364t-139.5 363.5t-346.5 148.5t-344 -146t-137 -363.5zM193 483q0 180 105 298t269 118t269.5 -118t105.5 -298t-105 -298t-270 -117q-164 0 -269 117.5t-105 297.5zM264 1106h72l229 213l232 -213h71 l-243 297h-119z" />
<glyph unicode="&#xf5;" d="M84 485.5q0 -217.5 138 -365.5t344 -148.5t347 147.5q138 149 138 364t-139.5 363.5t-346.5 148.5t-344 -146t-137 -363.5zM193 483q0 180 105 298t269 118t269.5 -118t105.5 -298t-105 -298t-270 -117q-164 0 -269 117.5t-105 297.5zM236 1165h55q41 97 121 99 q51 0 144 -50.5t156 -50.5q129 0 187 180h-57q-35 -96 -119 -98q-55 0 -146 50q-172 94 -264 8q-47 -41 -77 -138z" />
<glyph unicode="&#xf6;" d="M84 485.5q0 -217.5 138 -365.5t344 -148.5t347 147.5q138 149 138 364t-139.5 363.5t-346.5 148.5t-344 -146t-137 -363.5zM193 483q0 180 105 298t269 118t269.5 -118t105.5 -298t-105 -298t-270 -117q-164 0 -269 117.5t-105 297.5zM324 1188h131v131h-131v-131z M678 1188h131v131h-131v-131z" />
<glyph unicode="&#xf7;" horiz-adv-x="1368" d="M145 610h1074v90h-1074v-90zM637 117h115v131h-115v-131zM637 1008h115v131h-115v-131z" />
<glyph unicode="&#xf8;" d="M74 -33l53 -45l135 158q125 -109 317.5 -109t333.5 148q137 150 137.5 361.5t-128.5 357.5l141 163l-53 48l-140 -162q-121 109 -316.5 108.5t-332.5 -146.5t-137 -361.5t129 -358.5zM193 488.5q0 174.5 105 292.5t261 118t246 -88l-524 -606q-88 109 -88 283.5zM328 154 l526 606q88 -107 88 -282t-105 -293t-260 -117.5t-249 86.5z" />
<glyph unicode="&#xf9;" horiz-adv-x="1110" d="M27 877h170v-650q0 -115 65 -178t179 -63t185 34q139 66 193 117v-137h275v92h-168v877h-107v-713q-72 -72 -168 -123t-180 -51t-127 43q-41 45 -41 121v723h-276v-92zM385 1415l244 -317h78l-205 317h-117z" />
<glyph unicode="&#xfa;" horiz-adv-x="1110" d="M27 877h170v-650q0 -115 65 -178t179 -63t185 34q139 66 193 117v-137h275v92h-168v877h-107v-713q-72 -72 -168 -123t-180 -51t-127 43q-41 45 -41 121v723h-276v-92zM406 1098h77l244 317h-117z" />
<glyph unicode="&#xfb;" horiz-adv-x="1110" d="M27 877h170v-650q0 -115 65 -178t179 -63t185 34q139 66 193 117v-137h275v92h-168v877h-107v-713q-72 -72 -168 -123t-180 -51t-127 43q-41 45 -41 121v723h-276v-92zM254 1106h72l229 213l231 -213h72l-244 297h-118z" />
<glyph unicode="&#xfc;" horiz-adv-x="1110" d="M27 877h170v-650q0 -115 65 -178t179 -63t185 34q139 66 193 117v-137h275v92h-168v877h-107v-713q-72 -72 -168 -123t-180 -51t-127 43q-41 45 -41 121v723h-276v-92zM313 1188h131v131h-131v-131zM668 1188h131v131h-131v-131z" />
<glyph unicode="&#xfd;" horiz-adv-x="1087" d="M4 877h160l348 -850l-164 -461h94l496 1311h147v92h-403v-92h154l-273 -721l-295 721l-35 92h-229v-92zM393 1098h78l244 317h-117z" />
<glyph unicode="&#xfe;" horiz-adv-x="1216" d="M-4 -342v-92h280v92h3v539q121 -226 372 -226q211 0 344 145.5t133 367.5t-133 366.5t-338 144.5q-236 0 -378 -223v619h-283v-93h176v-1640h-176zM274 489q0 186 108 300t271.5 114t270 -117t106.5 -301t-104.5 -300.5t-270.5 -116.5t-273.5 117.5t-107.5 303.5z" />
<glyph unicode="&#xff;" horiz-adv-x="1087" d="M4 877h160l348 -850l-164 -461h94l496 1311h147v92h-403v-92h154l-273 -721l-295 721l-35 92h-229v-92zM301 1188h131v131h-131v-131zM655 1188h131v131h-131v-131z" />
<glyph unicode="&#x152;" horiz-adv-x="2154" d="M102 697.5q0 -322.5 200 -510t554 -187.5h1178v92h-822v574h578v92h-578v540h727v-245h93v338h-1198q-334 0 -533 -185.5t-199 -508zM217 694.5q0 290.5 169 447.5t480 156h232v-1206h-238q-301 0 -472 156t-171 446.5z" />
<glyph unicode="&#x153;" horiz-adv-x="1898" d="M80 482.5q0 -218.5 130 -364.5t325 -147q141 0 251.5 67t161.5 189q65 -122 180 -194q106 -61 250.5 -61.5t263.5 71.5l-49 78q-94 -63 -209 -64q-168 0 -272 116t-115 288h832q-12 229 -135 382t-322 152q-135 0 -250 -71q-111 -66 -174 -201q-45 125 -158 199t-255 73 q-195 0 -325 -147t-130 -365.5zM188 483q0 180 99.5 298t254.5 118t254 -118t99 -298t-99 -298t-254 -117.5t-254 118t-100 297.5zM1001 553q23 145 97 231q102 121 253.5 121t248 -98t116.5 -254h-715z" />
<glyph unicode="&#x178;" horiz-adv-x="1236" d="M-39 1298h180l426 -671v-535h-192v-92h307v627l426 671h166v93h-457v-93h180l-362 -571l-361 571h-2l-57 93h-254v-93zM377 1604h131v131h-131v-131zM731 1604h131v131h-131v-131z" />
<glyph unicode="&#x2c6;" horiz-adv-x="681" d="M39 1106h72l229 213l231 -213h72l-244 297h-118z" />
<glyph unicode="&#x2dc;" horiz-adv-x="681" d="M10 1165h56q41 97 120 99q51 0 144.5 -50.5t155.5 -50.5q130 0 188 180h-58q-35 -96 -118 -98q-55 0 -146 50q-173 95 -264 8q-47 -41 -78 -138z" />
<glyph unicode="&#x2000;" horiz-adv-x="929" />
<glyph unicode="&#x2001;" horiz-adv-x="1858" />
<glyph unicode="&#x2002;" horiz-adv-x="929" />
<glyph unicode="&#x2003;" horiz-adv-x="1858" />
<glyph unicode="&#x2004;" horiz-adv-x="619" />
<glyph unicode="&#x2005;" horiz-adv-x="464" />
<glyph unicode="&#x2006;" horiz-adv-x="309" />
<glyph unicode="&#x2007;" horiz-adv-x="309" />
<glyph unicode="&#x2008;" horiz-adv-x="232" />
<glyph unicode="&#x2009;" horiz-adv-x="371" />
<glyph unicode="&#x200a;" horiz-adv-x="103" />
<glyph unicode="&#x2010;" horiz-adv-x="704" d="M70 514h561v92h-561v-92z" />
<glyph unicode="&#x2011;" horiz-adv-x="704" d="M70 514h561v92h-561v-92z" />
<glyph unicode="&#x2012;" horiz-adv-x="704" d="M70 514h561v92h-561v-92z" />
<glyph unicode="&#x2013;" horiz-adv-x="1024" d="M0 459h1024v108h-1024v-108z" />
<glyph unicode="&#x2014;" horiz-adv-x="2048" d="M0 459h2048v108h-2048v-108z" />
<glyph unicode="&#x2018;" horiz-adv-x="512" d="M199 942h114v191h-51q0 109 13.5 146.5t56.5 37.5v74q-135 -8 -133 -230v-219z" />
<glyph unicode="&#x2019;" horiz-adv-x="512" d="M180 942q133 8 133 229v220h-114v-191h51q0 -109 -14 -145q-12 -39 -56 -39v-74z" />
<glyph unicode="&#x201a;" horiz-adv-x="512" d="M180 -184v-74q133 4 133 229v219h-114v-190h51q0 -109 -14 -145q-12 -39 -56 -39z" />
<glyph unicode="&#x201c;" horiz-adv-x="980" d="M184 942h115v191h-51q0 109 14 145q12 39 55 39v74q-133 -8 -133 -230v-219zM664 942h114v191h-51q0 109 13.5 146.5t56.5 37.5v74q-135 -8 -133 -230v-219z" />
<glyph unicode="&#x201d;" horiz-adv-x="980" d="M184 942q63 2 101 62q32 58 32 167v220h-114v-191h51q0 -109 -14 -145q-12 -39 -56 -39v-74zM664 942q63 2 98 61t35 168v220h-115v-191h51q0 -109 -14 -145q-12 -39 -55 -39v-74z" />
<glyph unicode="&#x201e;" horiz-adv-x="980" d="M180 -184v-74q133 4 133 229v219h-114v-190h51q0 -109 -14 -145q-12 -39 -56 -39zM668 -184v-74q63 2 100 61q33 59 33 168v219h-115v-190h51q0 -109 -14 -145q-12 -39 -55 -39z" />
<glyph unicode="&#x2022;" horiz-adv-x="1024" d="M346 620.5q0 -69.5 49 -114.5q45 -49 115 -49t117 49q49 45 49 115t-48 117.5t-117 47.5t-117 -48t-48 -117.5z" />
<glyph unicode="&#x2026;" horiz-adv-x="2048" d="M295 0h115v131h-115v-131zM977 0h115v131h-115v-131zM1659 0h115v131h-115v-131z" />
<glyph unicode="&#x202f;" horiz-adv-x="371" />
<glyph unicode="&#x2039;" horiz-adv-x="468" d="M33 489l313 -489h113l-312 489l312 490h-113z" />
<glyph unicode="&#x203a;" horiz-adv-x="468" d="M10 0h113l313 489l-313 490h-113l312 -490z" />
<glyph unicode="&#x205f;" horiz-adv-x="464" />
<glyph unicode="&#x2122;" horiz-adv-x="1921" d="M231 1303h275v-730h90v730h272v88h-637v-88zM961 573h94v740l229 -740h70l241 740v-740h91v818h-154l-211 -662l-205 662h-155v-818z" />
<glyph unicode="&#xe000;" horiz-adv-x="972" d="M0 0v973h973v-973h-973z" />
</font>
</defs>
</svg>
